<svg xmlns="http://www.w3.org/2000/svg" xmlns:xlink="http://www.w3.org/1999/xlink" width="515" zoomAndPan="magnify" viewBox="0 0 386.25 386.249991" height="515" preserveAspectRatio="xMidYMid meet" version="1.0"><defs><filter x="0%" y="0%" width="100%" height="100%" id="7ad52606eb"><feColorMatrix values="0 0 0 0 1 0 0 0 0 1 0 0 0 0 1 0 0 0 1 0" color-interpolation-filters="sRGB"/></filter><g/><clipPath id="e824c803e8"><path d="M 0 0 L 385.5 0 L 385.5 385.5 L 0 385.5 Z M 0 0 " clip-rule="nonzero"/></clipPath><mask id="07697d9a90"><g filter="url(#7ad52606eb)"><rect x="-38.625" width="463.5" fill="#000000" y="-38.624999" height="463.499989" fill-opacity="0.8"/></g></mask><clipPath id="ad7e4ae483"><path d="M 0 0 L 384.84375 0 L 384.84375 384.84375 L 0 384.84375 Z M 0 0 " clip-rule="nonzero"/></clipPath><clipPath id="b34090b5af"><path d="M 192.421875 0 C 86.148438 0 0 86.148438 0 192.421875 C 0 298.691406 86.148438 384.84375 192.421875 384.84375 C 298.691406 384.84375 384.84375 298.691406 384.84375 192.421875 C 384.84375 86.148438 298.691406 0 192.421875 0 Z M 192.421875 0 " clip-rule="nonzero"/></clipPath><clipPath id="600979b338"><path d="M 0 0 L 384.84375 0 L 384.84375 384.84375 L 0 384.84375 Z M 0 0 " clip-rule="nonzero"/></clipPath><clipPath id="d461df5af4"><path d="M 192.421875 0 C 86.148438 0 0 86.148438 0 192.421875 C 0 298.691406 86.148438 384.84375 192.421875 384.84375 C 298.691406 384.84375 384.84375 298.691406 384.84375 192.421875 C 384.84375 86.148438 298.691406 0 192.421875 0 Z M 192.421875 0 " clip-rule="nonzero"/></clipPath><clipPath id="6c4a9da6de"><rect x="0" width="385" y="0" height="385"/></clipPath><clipPath id="199a967e9a"><path d="M 0 0 L 384.753906 0 L 384.753906 384.753906 L 0 384.753906 Z M 0 0 " clip-rule="nonzero"/></clipPath><clipPath id="bfb236ba95"><path d="M 192.417969 0 C 86.148438 0 0 86.148438 0 192.417969 C 0 298.6875 86.148438 384.835938 192.417969 384.835938 C 298.6875 384.835938 384.835938 298.6875 384.835938 192.417969 C 384.835938 86.148438 298.6875 0 192.417969 0 Z M 192.417969 0 " clip-rule="nonzero"/></clipPath><clipPath id="f983903f99"><rect x="0" width="386" y="0" height="386"/></clipPath><clipPath id="cd0cf46ed2"><rect x="0" width="272" y="0" height="49"/></clipPath><clipPath id="cf96ae14e2"><rect x="0" width="298" y="0" height="152"/></clipPath><clipPath id="96d9529cf1"><path d="M 126.640625 113 L 202.992188 113 L 202.992188 182 L 126.640625 182 Z M 126.640625 113 " clip-rule="nonzero"/></clipPath><clipPath id="c903f82042"><path d="M 133 141 L 197 141 L 197 235.78125 L 133 235.78125 Z M 133 141 " clip-rule="nonzero"/></clipPath><clipPath id="94fdbbcd61"><path d="M 0 0 L 385.5 0 L 385.5 385.5 L 0 385.5 Z M 0 0 " clip-rule="nonzero"/></clipPath><mask id="decb53a4ff"><g filter="url(#7ad52606eb)"><rect x="-38.625" width="463.5" fill="#000000" y="-38.624999" height="463.499989" fill-opacity="0.8"/></g></mask><clipPath id="6800a3935a"><path d="M 0 0 L 384.753906 0 L 384.753906 384.753906 L 0 384.753906 Z M 0 0 " clip-rule="nonzero"/></clipPath><clipPath id="dd47415dc4"><path d="M 192.417969 0 C 86.148438 0 0 86.148438 0 192.417969 C 0 298.6875 86.148438 384.835938 192.417969 384.835938 C 298.6875 384.835938 384.835938 298.6875 384.835938 192.417969 C 384.835938 86.148438 298.6875 0 192.417969 0 Z M 192.417969 0 " clip-rule="nonzero"/></clipPath><clipPath id="4316197b0a"><rect x="0" width="386" y="0" height="386"/></clipPath></defs><g clip-path="url(#e824c803e8)"><g mask="url(#07697d9a90)"><g transform="matrix(1, 0, 0, 1, 0, 0)"><g clip-path="url(#f983903f99)"><g clip-path="url(#ad7e4ae483)"><g clip-path="url(#b34090b5af)"><g transform="matrix(1, 0, 0, 1, 0, 0)"><g clip-path="url(#6c4a9da6de)"><g clip-path="url(#600979b338)"><g clip-path="url(#d461df5af4)"><path fill="#0056a0" d="M 0 0 L 384.84375 0 L 384.84375 384.84375 L 0 384.84375 Z M 0 0 " fill-opacity="1" fill-rule="nonzero"/></g></g></g></g></g></g><g clip-path="url(#199a967e9a)"><g clip-path="url(#bfb236ba95)"><path stroke-linecap="butt" transform="matrix(0.748546, 0, 0, 0.748546, 0.0000045, 0)" fill="none" stroke-linejoin="miter" d="M 257.055472 0 C 115.087623 0 -0.00000601165 115.087629 -0.00000601165 257.055478 C -0.00000601165 399.023327 115.087623 514.110956 257.055472 514.110956 C 399.023321 514.110956 514.11095 399.023327 514.11095 257.055478 C 514.11095 115.087629 399.023321 0 257.055472 0 Z M 257.055472 0 " stroke="#f8b701" stroke-width="20" stroke-opacity="1" stroke-miterlimit="4"/></g></g></g></g></g></g><g transform="matrix(1, 0, 0, 1, 59, 237)"><g clip-path="url(#cd0cf46ed2)"><g fill="#ffffff" fill-opacity="1"><g transform="translate(0.49855, 36.483613)"><g><path d="M 29.109375 -23.84375 L 29.109375 0 L 23.296875 0 L 23.296875 -14.296875 L 17.96875 0 L 13.28125 0 L 7.921875 -14.328125 L 7.921875 0 L 2.109375 0 L 2.109375 -23.84375 L 8.96875 -23.84375 L 15.65625 -7.34375 L 22.28125 -23.84375 Z M 29.109375 -23.84375 "/></g></g></g><g fill="#ffffff" fill-opacity="1"><g transform="translate(33.741416, 36.483613)"><g><path d="M 7.8125 -23.84375 L 7.8125 -9.578125 C 7.8125 -8.148438 8.160156 -7.050781 8.859375 -6.28125 C 9.566406 -5.507812 10.597656 -5.125 11.953125 -5.125 C 13.316406 -5.125 14.359375 -5.507812 15.078125 -6.28125 C 15.804688 -7.050781 16.171875 -8.148438 16.171875 -9.578125 L 16.171875 -23.84375 L 21.984375 -23.84375 L 21.984375 -9.609375 C 21.984375 -7.484375 21.53125 -5.679688 20.625 -4.203125 C 19.71875 -2.734375 18.5 -1.625 16.96875 -0.875 C 15.4375 -0.132812 13.734375 0.234375 11.859375 0.234375 C 9.972656 0.234375 8.285156 -0.128906 6.796875 -0.859375 C 5.316406 -1.597656 4.144531 -2.707031 3.28125 -4.1875 C 2.425781 -5.675781 2 -7.484375 2 -9.609375 L 2 -23.84375 Z M 7.8125 -23.84375 "/></g></g></g><g fill="#ffffff" fill-opacity="1"><g transform="translate(59.751775, 36.483613)"><g><path d="M 23.4375 0 L 17.625 0 L 7.921875 -14.703125 L 7.921875 0 L 2.109375 0 L 2.109375 -23.84375 L 7.921875 -23.84375 L 17.625 -9.0625 L 17.625 -23.84375 L 23.4375 -23.84375 Z M 23.4375 0 "/></g></g></g><g fill="#ffffff" fill-opacity="1"><g transform="translate(87.358041, 36.483613)"><g><path d="M 19.265625 -23.84375 L 19.265625 -19.1875 L 12.9375 -19.1875 L 12.9375 0 L 7.140625 0 L 7.140625 -19.1875 L 0.8125 -19.1875 L 0.8125 -23.84375 Z M 19.265625 -23.84375 "/></g></g></g><g fill="#ffffff" fill-opacity="1"><g transform="translate(109.49749, 36.483613)"><g><path d="M 7.921875 -23.84375 L 7.921875 0 L 2.109375 0 L 2.109375 -23.84375 Z M 7.921875 -23.84375 "/></g></g></g><g fill="#ffffff" fill-opacity="1"><g transform="translate(121.58615, 36.483613)"><g><path d="M 23.4375 0 L 17.625 0 L 7.921875 -14.703125 L 7.921875 0 L 2.109375 0 L 2.109375 -23.84375 L 7.921875 -23.84375 L 17.625 -9.0625 L 17.625 -23.84375 L 23.4375 -23.84375 Z M 23.4375 0 "/></g></g></g><g fill="#ffffff" fill-opacity="1"><g transform="translate(149.192415, 36.483613)"><g><path d="M 11.046875 -23.84375 C 13.554688 -23.84375 15.75 -23.34375 17.625 -22.34375 C 19.507812 -21.351562 20.96875 -19.957031 22 -18.15625 C 23.03125 -16.351562 23.546875 -14.273438 23.546875 -11.921875 C 23.546875 -9.585938 23.03125 -7.515625 22 -5.703125 C 20.96875 -3.890625 19.503906 -2.484375 17.609375 -1.484375 C 15.722656 -0.492188 13.535156 0 11.046875 0 L 2.109375 0 L 2.109375 -23.84375 Z M 10.671875 -5.03125 C 12.867188 -5.03125 14.578125 -5.628906 15.796875 -6.828125 C 17.015625 -8.023438 17.625 -9.722656 17.625 -11.921875 C 17.625 -14.117188 17.015625 -15.828125 15.796875 -17.046875 C 14.578125 -18.273438 12.867188 -18.890625 10.671875 -18.890625 L 7.921875 -18.890625 L 7.921875 -5.03125 Z M 10.671875 -5.03125 "/></g></g></g><g fill="#ffffff" fill-opacity="1"><g transform="translate(175.949797, 36.483613)"><g><path d="M 7.921875 -23.84375 L 7.921875 0 L 2.109375 0 L 2.109375 -23.84375 Z M 7.921875 -23.84375 "/></g></g></g><g fill="#ffffff" fill-opacity="1"><g transform="translate(188.038457, 36.483613)"><g><path d="M 7.921875 -4.484375 L 15.53125 -4.484375 L 15.53125 0 L 2.109375 0 L 2.109375 -23.84375 L 7.921875 -23.84375 Z M 7.921875 -4.484375 "/></g></g></g><g fill="#ffffff" fill-opacity="1"><g transform="translate(206.306995, 36.483613)"><g><path d="M 16.953125 -4.21875 L 8.046875 -4.21875 L 6.625 0 L 0.546875 0 L 9.171875 -23.84375 L 15.890625 -23.84375 L 24.53125 0 L 18.375 0 Z M 15.453125 -8.703125 L 12.5 -17.421875 L 9.578125 -8.703125 Z M 15.453125 -8.703125 "/></g></g></g><g fill="#ffffff" fill-opacity="1"><g transform="translate(233.403933, 36.483613)"><g><path d="M 34.921875 -23.84375 L 28.703125 0 L 21.671875 0 L 17.875 -15.6875 L 13.921875 0 L 6.890625 0 L 0.84375 -23.84375 L 7.0625 -23.84375 L 10.5 -6.484375 L 14.75 -23.84375 L 21.125 -23.84375 L 25.203125 -6.484375 L 28.671875 -23.84375 Z M 34.921875 -23.84375 "/></g></g></g></g></g><g transform="matrix(1, 0, 0, 1, 50, 111)"><g clip-path="url(#cf96ae14e2)"><g fill="#ffffff" fill-opacity="1"><g transform="translate(1.242357, 123.400332)"><g><path d="M 58.085938 -65.078125 L 36.535156 -65.078125 L 36.535156 -74.984375 C 36.535156 -75.050781 36.507812 -75.113281 36.453125 -75.171875 C 36.460938 -75.167969 36.476562 -75.164062 36.5 -75.164062 L 28.6875 -75.164062 C 28.710938 -75.164062 28.726562 -75.167969 28.734375 -75.171875 C 28.679688 -75.113281 28.652344 -75.050781 28.652344 -74.984375 L 28.652344 -58.652344 C 28.652344 -58.585938 28.679688 -58.523438 28.734375 -58.464844 C 28.726562 -58.472656 28.710938 -58.476562 28.6875 -58.476562 L 41.46875 -58.476562 C 48.117188 -58.367188 53.167969 -56.480469 56.617188 -52.808594 C 60.035156 -49.171875 61.742188 -43.921875 61.742188 -37.066406 L 61.742188 -17.324219 C 61.742188 -10.375 60.035156 -5.078125 56.617188 -1.441406 C 53.15625 2.242188 48.105469 4.082031 41.46875 4.082031 L 24.710938 4.082031 C 18.074219 4.082031 13.023438 2.242188 9.5625 -1.441406 C 6.144531 -5.078125 4.4375 -10.375 4.4375 -17.324219 L 4.4375 -29.503906 L 28.652344 -29.503906 L 28.652344 -16.617188 C 28.652344 -16.550781 28.679688 -16.484375 28.734375 -16.425781 C 28.726562 -16.433594 28.710938 -16.4375 28.6875 -16.4375 L 37.492188 -16.4375 C 37.46875 -16.4375 37.453125 -16.433594 37.445312 -16.425781 C 37.5 -16.484375 37.527344 -16.550781 37.527344 -16.617188 L 37.527344 -34.652344 C 37.527344 -34.71875 37.5 -34.78125 37.445312 -34.839844 C 37.453125 -34.832031 37.46875 -34.828125 37.492188 -34.828125 L 24.710938 -34.828125 C 18.074219 -34.828125 13.023438 -36.671875 9.5625 -40.355469 C 6.144531 -43.992188 4.4375 -49.285156 4.4375 -56.238281 L 4.4375 -74.558594 C 4.4375 -81.511719 6.144531 -86.804688 9.5625 -90.441406 C 13.023438 -94.125 18.074219 -95.96875 24.710938 -95.96875 L 40.476562 -95.96875 C 47.113281 -95.96875 52.164062 -94.125 55.625 -90.441406 C 59.039062 -86.804688 60.746094 -81.511719 60.746094 -74.558594 L 60.746094 -65.078125 Z M 58.085938 -70.40625 L 58.085938 -67.742188 L 55.421875 -67.742188 L 55.421875 -74.558594 C 55.421875 -80.105469 54.195312 -84.183594 51.742188 -86.796875 C 49.332031 -89.359375 45.578125 -90.640625 40.476562 -90.640625 L 24.710938 -90.640625 C 19.609375 -90.640625 15.851562 -89.359375 13.445312 -86.796875 C 10.992188 -84.183594 9.765625 -80.105469 9.765625 -74.558594 L 9.765625 -56.238281 C 9.765625 -50.691406 10.992188 -46.613281 13.445312 -44.003906 C 15.851562 -41.4375 19.609375 -40.15625 24.710938 -40.15625 L 37.492188 -40.15625 C 39.03125 -40.15625 40.324219 -39.582031 41.371094 -38.441406 C 42.359375 -37.363281 42.855469 -36.101562 42.855469 -34.652344 L 42.855469 -16.617188 C 42.855469 -15.167969 42.359375 -13.90625 41.371094 -12.828125 C 40.324219 -11.683594 39.03125 -11.113281 37.492188 -11.113281 L 28.6875 -11.113281 C 27.148438 -11.113281 25.855469 -11.683594 24.808594 -12.828125 C 23.820312 -13.90625 23.328125 -15.167969 23.328125 -16.617188 L 23.328125 -26.839844 L 25.988281 -26.839844 L 25.988281 -24.179688 L 7.101562 -24.179688 L 7.101562 -26.839844 L 9.765625 -26.839844 L 9.765625 -17.324219 C 9.765625 -11.78125 10.992188 -7.703125 13.445312 -5.089844 C 15.851562 -2.523438 19.609375 -1.242188 24.710938 -1.242188 L 41.46875 -1.242188 C 46.570312 -1.242188 50.328125 -2.523438 52.734375 -5.089844 C 55.1875 -7.703125 56.417969 -11.78125 56.417969 -17.324219 L 56.417969 -37.066406 C 56.417969 -42.515625 55.1875 -46.550781 52.734375 -49.160156 C 50.316406 -51.738281 46.558594 -53.066406 41.46875 -53.148438 L 28.6875 -53.148438 C 27.148438 -53.148438 25.855469 -53.722656 24.808594 -54.867188 C 23.820312 -55.941406 23.328125 -57.203125 23.328125 -58.652344 L 23.328125 -74.984375 C 23.328125 -76.433594 23.820312 -77.695312 24.808594 -78.773438 C 25.855469 -79.917969 27.148438 -80.488281 28.6875 -80.488281 L 36.5 -80.488281 C 38.035156 -80.488281 39.332031 -79.917969 40.378906 -78.773438 C 41.367188 -77.695312 41.859375 -76.433594 41.859375 -74.984375 L 41.859375 -67.742188 L 39.195312 -67.742188 L 39.195312 -70.40625 Z M 58.085938 -70.40625 "/></g></g></g><g fill="#ffffff" fill-opacity="1"><g transform="translate(79.643198, 123.400332)"><g/></g></g><g fill="#ffffff" fill-opacity="1"><g transform="translate(121.680447, 123.400332)"><g/></g></g><g fill="#ffffff" fill-opacity="1"><g transform="translate(163.722, 123.400332)"><g><path d="M 29.644531 -36.074219 L 29.644531 2.664062 L 4.4375 2.664062 L 4.4375 -94.546875 L 51.234375 -94.546875 L 51.234375 -72.039062 L 26.984375 -72.039062 L 26.984375 -74.699219 L 29.644531 -74.699219 L 29.644531 -52.6875 L 26.984375 -52.6875 L 26.984375 -55.351562 L 49.8125 -55.351562 L 49.8125 -33.410156 L 26.984375 -33.410156 L 26.984375 -36.074219 Z M 24.320312 -38.734375 L 47.148438 -38.734375 L 47.148438 -36.074219 L 44.488281 -36.074219 L 44.488281 -52.6875 L 47.148438 -52.6875 L 47.148438 -50.027344 L 24.320312 -50.027344 L 24.320312 -77.363281 L 48.570312 -77.363281 L 48.570312 -74.699219 L 45.90625 -74.699219 L 45.90625 -91.886719 L 48.570312 -91.886719 L 48.570312 -89.222656 L 7.101562 -89.222656 L 7.101562 -91.886719 L 9.765625 -91.886719 L 9.765625 0 L 7.101562 0 L 7.101562 -2.664062 L 26.984375 -2.664062 L 26.984375 0 L 24.320312 0 Z M 24.320312 -38.734375 "/></g></g></g><g fill="#ffffff" fill-opacity="1"><g transform="translate(230.186089, 123.400332)"><g><path d="M 26.984375 -19.136719 L 51.660156 -19.136719 L 51.660156 2.664062 L 4.4375 2.664062 L 4.4375 -94.546875 L 51.660156 -94.546875 L 51.660156 -73.03125 L 26.984375 -73.03125 L 26.984375 -75.695312 L 29.644531 -75.695312 L 29.644531 -54.109375 L 26.984375 -54.109375 L 26.984375 -56.769531 L 50.238281 -56.769531 L 50.238281 -35.824219 L 26.984375 -35.824219 L 26.984375 -38.488281 L 29.644531 -38.488281 L 29.644531 -16.472656 L 26.984375 -16.472656 Z M 24.320312 -13.8125 L 24.320312 -41.148438 L 47.574219 -41.148438 L 47.574219 -38.488281 L 44.914062 -38.488281 L 44.914062 -54.109375 L 47.574219 -54.109375 L 47.574219 -51.445312 L 24.320312 -51.445312 L 24.320312 -78.359375 L 48.996094 -78.359375 L 48.996094 -75.695312 L 46.332031 -75.695312 L 46.332031 -91.886719 L 48.996094 -91.886719 L 48.996094 -89.222656 L 7.101562 -89.222656 L 7.101562 -91.886719 L 9.765625 -91.886719 L 9.765625 0 L 7.101562 0 L 7.101562 -2.664062 L 48.996094 -2.664062 L 48.996094 0 L 46.332031 0 L 46.332031 -16.472656 L 48.996094 -16.472656 L 48.996094 -13.8125 Z M 24.320312 -13.8125 "/></g></g></g></g></g><g clip-path="url(#96d9529cf1)"><path fill="#ffffff" d="M 162.746094 113.441406 C 143.082031 114.492188 127.378906 130.746094 126.960938 150.429688 C 126.691406 163.269531 132.84375 174.714844 142.421875 181.765625 C 143.019531 182.203125 143.875 181.917969 144.085938 181.207031 L 145.628906 176.039062 C 145.753906 175.625 145.613281 175.183594 145.28125 174.90625 C 138.09375 168.957031 133.648438 159.796875 134.167969 149.644531 C 134.96875 133.992188 147.667969 121.335938 163.324219 120.59375 C 180.925781 119.753906 195.511719 133.832031 195.511719 151.25 C 195.511719 160.53125 191.371094 168.859375 184.839844 174.496094 C 184.511719 174.78125 184.378906 175.230469 184.511719 175.640625 L 186.1875 180.761719 C 186.417969 181.464844 187.273438 181.730469 187.863281 181.277344 C 196.871094 174.347656 202.683594 163.464844 202.683594 151.25 C 202.683594 129.6875 184.5625 112.273438 162.746094 113.441406 " fill-opacity="1" fill-rule="nonzero"/></g><path fill="#ffffff" d="M 162.957031 127.320312 C 151.339844 128.199219 141.914062 137.511719 140.910156 149.121094 C 140.324219 155.914062 142.582031 162.195312 146.632812 166.890625 C 147.1875 167.535156 148.234375 167.320312 148.476562 166.503906 L 150.296875 160.40625 C 150.382812 160.125 150.339844 159.820312 150.195312 159.566406 C 148.734375 157.015625 147.929688 154.046875 147.996094 150.886719 C 148.179688 142.015625 155.414062 134.707031 164.28125 134.429688 C 173.804688 134.132812 181.648438 141.792969 181.648438 151.246094 C 181.648438 154.1875 180.890625 156.953125 179.558594 159.359375 C 179.414062 159.625 179.382812 159.929688 179.472656 160.214844 L 181.4375 166.21875 C 181.699219 167.027344 182.742188 167.210938 183.285156 166.558594 C 186.742188 162.398438 188.820312 157.0625 188.820312 151.246094 C 188.820312 137.402344 177.027344 126.253906 162.957031 127.320312 " fill-opacity="1" fill-rule="nonzero"/><g clip-path="url(#c903f82042)"><path fill="#f8b701" d="M 170.421875 217.066406 L 183.960938 209.617188 L 189.355469 227.480469 Z M 149.695312 205.664062 L 164.808594 197.625 L 179.917969 205.664062 L 164.808594 213.976562 Z M 140.261719 227.480469 L 145.65625 209.617188 L 159.195312 217.066406 Z M 151.425781 190.503906 L 159.046875 194.558594 L 148.507812 200.164062 Z M 155.527344 177.21875 L 159.722656 179.859375 L 153.496094 183.777344 Z M 176.121094 183.777344 L 169.890625 179.859375 L 174.089844 177.21875 Z M 172.078125 187.625 L 164.808594 191.492188 L 157.539062 187.625 L 164.808594 183.054688 Z M 164.820312 161.242188 C 166.261719 161.242188 167.632812 160.929688 168.871094 160.378906 L 172.429688 171.867188 L 164.808594 176.664062 L 157.183594 171.867188 L 160.746094 160.371094 C 161.992188 160.925781 163.367188 161.242188 164.820312 161.242188 Z M 181.105469 200.164062 L 170.570312 194.558594 L 178.191406 190.503906 Z M 196.433594 232.203125 L 188.265625 205.148438 C 188.226562 204.929688 188.164062 204.71875 188.074219 204.519531 L 182.789062 187.019531 L 173.324219 156.472656 C 174.367188 154.78125 174.929688 152.765625 174.789062 150.605469 C 174.46875 145.585938 170.335938 141.511719 165.3125 141.269531 C 159.570312 140.992188 154.828125 145.566406 154.828125 151.25 C 154.828125 153.15625 155.371094 154.933594 156.296875 156.445312 L 146.820312 187.039062 L 141.539062 204.523438 C 141.453125 204.71875 141.390625 204.929688 141.351562 205.148438 L 133.1875 232.179688 C 132.9375 233.015625 133.042969 233.945312 133.566406 234.648438 C 134.109375 235.378906 134.925781 235.757812 135.753906 235.757812 C 136.199219 235.757812 136.648438 235.644531 137.054688 235.421875 L 164.808594 220.152344 L 192.558594 235.421875 C 192.96875 235.644531 193.417969 235.757812 193.863281 235.757812 C 194.773438 235.757812 195.675781 235.296875 196.207031 234.410156 C 196.605469 233.753906 196.65625 232.941406 196.433594 232.203125 " fill-opacity="1" fill-rule="nonzero"/></g><g clip-path="url(#94fdbbcd61)"><g mask="url(#decb53a4ff)"><g transform="matrix(1, 0, 0, 1, 0, 0)"><g clip-path="url(#4316197b0a)"><g clip-path="url(#6800a3935a)"><g clip-path="url(#dd47415dc4)"><path stroke-linecap="butt" transform="matrix(0.748546, 0, 0, 0.748546, 0.0000045, 0)" fill="none" stroke-linejoin="miter" d="M 257.055472 0 C 115.087623 0 -0.00000601165 115.087629 -0.00000601165 257.055478 C -0.00000601165 399.023327 115.087623 514.110956 257.055472 514.110956 C 399.023321 514.110956 514.11095 399.023327 514.11095 257.055478 C 514.11095 115.087629 399.023321 0 257.055472 0 Z M 257.055472 0 " stroke="#f8b701" stroke-width="20" stroke-opacity="1" stroke-miterlimit="4"/></g></g></g></g></g></g></svg>