<svg xmlns="http://www.w3.org/2000/svg" xmlns:xlink="http://www.w3.org/1999/xlink" width="485" zoomAndPan="magnify" viewBox="0 0 363.75 363.749991" height="485" preserveAspectRatio="xMidYMid meet" version="1.0"><defs><filter x="0%" y="0%" width="100%" height="100%" id="8176619b7f"><feColorMatrix values="0 0 0 0 1 0 0 0 0 1 0 0 0 0 1 0 0 0 1 0" color-interpolation-filters="sRGB"/></filter><g/><mask id="7ffddb0c8f"><g filter="url(#8176619b7f)"><rect x="-36.375" width="436.5" fill="#000000" y="-36.374999" height="436.499989" fill-opacity="0.8"/></g></mask><clipPath id="3e42e1d473"><path d="M 0.675781 0.675781 L 362.675781 0.675781 L 362.675781 362.675781 L 0.675781 362.675781 Z M 0.675781 0.675781 " clip-rule="nonzero"/></clipPath><clipPath id="4b48a58fdb"><path d="M 38.148438 0.675781 L 325.203125 0.675781 C 345.898438 0.675781 362.675781 17.453125 362.675781 38.148438 L 362.675781 325.203125 C 362.675781 345.898438 345.898438 362.675781 325.203125 362.675781 L 38.148438 362.675781 C 17.453125 362.675781 0.675781 345.898438 0.675781 325.203125 L 0.675781 38.148438 C 0.675781 17.453125 17.453125 0.675781 38.148438 0.675781 Z M 38.148438 0.675781 " clip-rule="nonzero"/></clipPath><clipPath id="a48f24dfb0"><path d="M 0.675781 0.675781 L 362.675781 0.675781 L 362.675781 362.675781 L 0.675781 362.675781 Z M 0.675781 0.675781 " clip-rule="nonzero"/></clipPath><clipPath id="a259d711a7"><path d="M 38.148438 0.675781 L 325.203125 0.675781 C 345.898438 0.675781 362.675781 17.453125 362.675781 38.148438 L 362.675781 325.203125 C 362.675781 345.898438 345.898438 362.675781 325.203125 362.675781 L 38.148438 362.675781 C 17.453125 362.675781 0.675781 345.898438 0.675781 325.203125 L 0.675781 38.148438 C 0.675781 17.453125 17.453125 0.675781 38.148438 0.675781 Z M 38.148438 0.675781 " clip-rule="nonzero"/></clipPath><clipPath id="f69d69d85b"><rect x="0" width="363" y="0" height="363"/></clipPath><clipPath id="515e8e35e8"><rect x="0" width="363" y="0" height="363"/></clipPath><clipPath id="5b94c01257"><rect x="0" width="273" y="0" height="50"/></clipPath><clipPath id="3772c6c8c0"><rect x="0" width="298" y="0" height="151"/></clipPath><clipPath id="6cdcf04f0b"><path d="M 122 130 L 186 130 L 186 225.09375 L 122 225.09375 Z M 122 130 " clip-rule="nonzero"/></clipPath><clipPath id="acf4428596"><path d="M 0 0 L 363.460938 0 L 363.460938 363.460938 L 0 363.460938 Z M 0 0 " clip-rule="nonzero"/></clipPath><clipPath id="13170ddab7"><path d="M 37.472656 0 L 325.875 0 C 346.570312 0 363.347656 16.777344 363.347656 37.472656 L 363.347656 325.875 C 363.347656 346.570312 346.570312 363.347656 325.875 363.347656 L 37.472656 363.347656 C 16.777344 363.347656 0 346.570312 0 325.875 L 0 37.472656 C 0 16.777344 16.777344 0 37.472656 0 Z M 37.472656 0 " clip-rule="nonzero"/></clipPath></defs><g mask="url(#7ffddb0c8f)"><g transform="matrix(1, 0, 0, 1, 0.000000000000000056, 0)"><g clip-path="url(#515e8e35e8)"><g clip-path="url(#3e42e1d473)"><g clip-path="url(#4b48a58fdb)"><g transform="matrix(1, 0, 0, 1, 0.000000000000000056, 0)"><g clip-path="url(#f69d69d85b)"><g clip-path="url(#a48f24dfb0)"><g clip-path="url(#a259d711a7)"><path fill="#0056a0" d="M 0.675781 0.675781 L 362.675781 0.675781 L 362.675781 362.675781 L 0.675781 362.675781 Z M 0.675781 0.675781 " fill-opacity="1" fill-rule="nonzero"/></g></g></g></g></g></g></g></g></g><g transform="matrix(1, 0, 0, 1, 48, 226)"><g clip-path="url(#5b94c01257)"><g fill="#ffffff" fill-opacity="1"><g transform="translate(0.587007, 36.840336)"><g><path d="M 29.140625 -23.875 L 29.140625 0 L 23.328125 0 L 23.328125 -14.3125 L 17.984375 0 L 13.296875 0 L 7.921875 -14.34375 L 7.921875 0 L 2.109375 0 L 2.109375 -23.875 L 8.96875 -23.875 L 15.671875 -7.34375 L 22.296875 -23.875 Z M 29.140625 -23.875 "/></g></g></g><g fill="#ffffff" fill-opacity="1"><g transform="translate(33.871546, 36.840336)"><g><path d="M 7.8125 -23.875 L 7.8125 -9.59375 C 7.8125 -8.164062 8.160156 -7.066406 8.859375 -6.296875 C 9.566406 -5.523438 10.601562 -5.140625 11.96875 -5.140625 C 13.332031 -5.140625 14.375 -5.523438 15.09375 -6.296875 C 15.820312 -7.066406 16.1875 -8.164062 16.1875 -9.59375 L 16.1875 -23.875 L 22 -23.875 L 22 -9.625 C 22 -7.488281 21.546875 -5.679688 20.640625 -4.203125 C 19.734375 -2.734375 18.515625 -1.625 16.984375 -0.875 C 15.453125 -0.132812 13.742188 0.234375 11.859375 0.234375 C 9.984375 0.234375 8.300781 -0.128906 6.8125 -0.859375 C 5.332031 -1.597656 4.160156 -2.707031 3.296875 -4.1875 C 2.429688 -5.675781 2 -7.488281 2 -9.625 L 2 -23.875 Z M 7.8125 -23.875 "/></g></g></g><g fill="#ffffff" fill-opacity="1"><g transform="translate(59.914512, 36.840336)"><g><path d="M 23.453125 0 L 17.640625 0 L 7.921875 -14.71875 L 7.921875 0 L 2.109375 0 L 2.109375 -23.875 L 7.921875 -23.875 L 17.640625 -9.078125 L 17.640625 -23.875 L 23.453125 -23.875 Z M 23.453125 0 "/></g></g></g><g fill="#ffffff" fill-opacity="1"><g transform="translate(87.555385, 36.840336)"><g><path d="M 19.28125 -23.875 L 19.28125 -19.203125 L 12.953125 -19.203125 L 12.953125 0 L 7.140625 0 L 7.140625 -19.203125 L 0.8125 -19.203125 L 0.8125 -23.875 Z M 19.28125 -23.875 "/></g></g></g><g fill="#ffffff" fill-opacity="1"><g transform="translate(109.722588, 36.840336)"><g><path d="M 7.921875 -23.875 L 7.921875 0 L 2.109375 0 L 2.109375 -23.875 Z M 7.921875 -23.875 "/></g></g></g><g fill="#ffffff" fill-opacity="1"><g transform="translate(121.826402, 36.840336)"><g><path d="M 23.453125 0 L 17.640625 0 L 7.921875 -14.71875 L 7.921875 0 L 2.109375 0 L 2.109375 -23.875 L 7.921875 -23.875 L 17.640625 -9.078125 L 17.640625 -23.875 L 23.453125 -23.875 Z M 23.453125 0 "/></g></g></g><g fill="#ffffff" fill-opacity="1"><g transform="translate(149.467275, 36.840336)"><g><path d="M 11.046875 -23.875 C 13.566406 -23.875 15.765625 -23.375 17.640625 -22.375 C 19.523438 -21.375 20.984375 -19.972656 22.015625 -18.171875 C 23.046875 -16.367188 23.5625 -14.289062 23.5625 -11.9375 C 23.5625 -9.601562 23.046875 -7.523438 22.015625 -5.703125 C 20.984375 -3.890625 19.519531 -2.484375 17.625 -1.484375 C 15.738281 -0.492188 13.546875 0 11.046875 0 L 2.109375 0 L 2.109375 -23.875 Z M 10.671875 -5.03125 C 12.867188 -5.03125 14.578125 -5.628906 15.796875 -6.828125 C 17.023438 -8.035156 17.640625 -9.738281 17.640625 -11.9375 C 17.640625 -14.132812 17.023438 -15.84375 15.796875 -17.0625 C 14.578125 -18.289062 12.867188 -18.90625 10.671875 -18.90625 L 7.921875 -18.90625 L 7.921875 -5.03125 Z M 10.671875 -5.03125 "/></g></g></g><g fill="#ffffff" fill-opacity="1"><g transform="translate(176.2582, 36.840336)"><g><path d="M 7.921875 -23.875 L 7.921875 0 L 2.109375 0 L 2.109375 -23.875 Z M 7.921875 -23.875 "/></g></g></g><g fill="#ffffff" fill-opacity="1"><g transform="translate(188.362014, 36.840336)"><g><path d="M 7.921875 -4.484375 L 15.53125 -4.484375 L 15.53125 0 L 2.109375 0 L 2.109375 -23.875 L 7.921875 -23.875 Z M 7.921875 -4.484375 "/></g></g></g><g fill="#ffffff" fill-opacity="1"><g transform="translate(206.653454, 36.840336)"><g><path d="M 16.96875 -4.21875 L 8.0625 -4.21875 L 6.625 0 L 0.546875 0 L 9.1875 -23.875 L 15.90625 -23.875 L 24.546875 0 L 18.390625 0 Z M 15.46875 -8.703125 L 12.515625 -17.4375 L 9.59375 -8.703125 Z M 15.46875 -8.703125 "/></g></g></g><g fill="#ffffff" fill-opacity="1"><g transform="translate(233.78436, 36.840336)"><g><path d="M 34.953125 -23.875 L 28.734375 0 L 21.6875 0 L 17.890625 -15.703125 L 13.9375 0 L 6.90625 0 L 0.84375 -23.875 L 7.078125 -23.875 L 10.5 -6.5 L 14.75 -23.875 L 21.140625 -23.875 L 25.234375 -6.5 L 28.703125 -23.875 Z M 34.953125 -23.875 "/></g></g></g></g></g><g transform="matrix(1, 0, 0, 1, 39, 101)"><g clip-path="url(#3772c6c8c0)"><g fill="#ffffff" fill-opacity="1"><g transform="translate(1.320467, 122.708046)"><g><path d="M 58.15625 -65.160156 L 36.578125 -65.160156 L 36.578125 -75.078125 C 36.578125 -75.144531 36.550781 -75.207031 36.5 -75.269531 C 36.503906 -75.261719 36.519531 -75.257812 36.542969 -75.257812 L 28.722656 -75.257812 C 28.746094 -75.257812 28.761719 -75.261719 28.769531 -75.269531 C 28.714844 -75.207031 28.6875 -75.144531 28.6875 -75.078125 L 28.6875 -58.726562 C 28.6875 -58.660156 28.714844 -58.597656 28.769531 -58.539062 C 28.761719 -58.546875 28.746094 -58.550781 28.722656 -58.550781 L 41.519531 -58.550781 C 48.179688 -58.441406 53.234375 -56.550781 56.6875 -52.875 C 60.109375 -49.230469 61.820312 -43.980469 61.820312 -37.113281 L 61.820312 -17.347656 C 61.820312 -10.386719 60.109375 -5.085938 56.6875 -1.445312 C 53.222656 2.242188 48.167969 4.089844 41.519531 4.089844 L 24.742188 4.089844 C 18.09375 4.089844 13.039062 2.242188 9.574219 -1.445312 C 6.152344 -5.085938 4.445312 -10.386719 4.445312 -17.347656 L 4.445312 -29.542969 L 28.6875 -29.542969 L 28.6875 -16.636719 C 28.6875 -16.570312 28.714844 -16.507812 28.769531 -16.449219 C 28.761719 -16.457031 28.746094 -16.460938 28.722656 -16.460938 L 37.539062 -16.460938 C 37.515625 -16.460938 37.5 -16.457031 37.492188 -16.449219 C 37.546875 -16.507812 37.574219 -16.570312 37.574219 -16.636719 L 37.574219 -34.695312 C 37.574219 -34.761719 37.546875 -34.824219 37.492188 -34.882812 C 37.5 -34.878906 37.515625 -34.875 37.539062 -34.875 L 24.742188 -34.875 C 18.09375 -34.875 13.039062 -36.71875 9.574219 -40.40625 C 6.152344 -44.046875 4.445312 -49.347656 4.445312 -56.308594 L 4.445312 -74.652344 C 4.445312 -81.613281 6.152344 -86.914062 9.574219 -90.554688 C 13.039062 -94.242188 18.09375 -96.089844 24.742188 -96.089844 L 40.527344 -96.089844 C 47.171875 -96.089844 52.226562 -94.242188 55.691406 -90.554688 C 59.113281 -86.914062 60.824219 -81.613281 60.824219 -74.652344 L 60.824219 -65.160156 Z M 58.15625 -70.492188 L 58.15625 -67.828125 L 55.492188 -67.828125 L 55.492188 -74.652344 C 55.492188 -80.203125 54.261719 -84.289062 51.804688 -86.902344 C 49.394531 -89.472656 45.632812 -90.757812 40.527344 -90.757812 L 24.742188 -90.757812 C 19.632812 -90.757812 15.875 -89.472656 13.460938 -86.902344 C 11.003906 -84.289062 9.777344 -80.203125 9.777344 -74.652344 L 9.777344 -56.308594 C 9.777344 -50.757812 11.003906 -46.671875 13.460938 -44.058594 C 15.875 -41.488281 19.632812 -40.207031 24.742188 -40.207031 L 37.539062 -40.207031 C 39.078125 -40.207031 40.375 -39.632812 41.425781 -38.488281 C 42.414062 -37.410156 42.90625 -36.144531 42.90625 -34.695312 L 42.90625 -16.636719 C 42.90625 -15.1875 42.414062 -13.921875 41.425781 -12.84375 C 40.375 -11.699219 39.078125 -11.125 37.539062 -11.125 L 28.722656 -11.125 C 27.183594 -11.125 25.886719 -11.699219 24.839844 -12.84375 C 23.851562 -13.921875 23.355469 -15.1875 23.355469 -16.636719 L 23.355469 -26.875 L 26.023438 -26.875 L 26.023438 -24.207031 L 7.109375 -24.207031 L 7.109375 -26.875 L 9.777344 -26.875 L 9.777344 -17.347656 C 9.777344 -11.796875 11.003906 -7.710938 13.460938 -5.097656 C 15.875 -2.527344 19.632812 -1.246094 24.742188 -1.246094 L 41.519531 -1.246094 C 46.628906 -1.246094 50.390625 -2.527344 52.800781 -5.097656 C 55.257812 -7.710938 56.488281 -11.796875 56.488281 -17.347656 L 56.488281 -37.113281 C 56.488281 -42.570312 55.257812 -46.605469 52.800781 -49.222656 C 50.378906 -51.800781 46.617188 -53.132812 41.519531 -53.214844 L 28.722656 -53.214844 C 27.183594 -53.214844 25.886719 -53.789062 24.839844 -54.933594 C 23.851562 -56.011719 23.355469 -57.277344 23.355469 -58.726562 L 23.355469 -75.078125 C 23.355469 -76.527344 23.851562 -77.792969 24.839844 -78.871094 C 25.886719 -80.015625 27.183594 -80.589844 28.722656 -80.589844 L 36.542969 -80.589844 C 38.085938 -80.589844 39.378906 -80.015625 40.429688 -78.871094 C 41.417969 -77.792969 41.910156 -76.527344 41.910156 -75.078125 L 41.910156 -67.828125 L 39.246094 -67.828125 L 39.246094 -70.492188 Z M 58.15625 -70.492188 "/></g></g></g><g fill="#ffffff" fill-opacity="1"><g transform="translate(79.819592, 122.708046)"><g/></g></g><g fill="#ffffff" fill-opacity="1"><g transform="translate(121.909538, 122.708046)"><g/></g></g><g fill="#ffffff" fill-opacity="1"><g transform="translate(164.003795, 122.708046)"><g><path d="M 29.683594 -36.117188 L 29.683594 2.667969 L 4.445312 2.667969 L 4.445312 -94.667969 L 51.296875 -94.667969 L 51.296875 -72.128906 L 27.015625 -72.128906 L 27.015625 -74.792969 L 29.683594 -74.792969 L 29.683594 -52.753906 L 27.015625 -52.753906 L 27.015625 -55.421875 L 49.875 -55.421875 L 49.875 -33.453125 L 27.015625 -33.453125 L 27.015625 -36.117188 Z M 24.351562 -38.785156 L 47.207031 -38.785156 L 47.207031 -36.117188 L 44.542969 -36.117188 L 44.542969 -52.753906 L 47.207031 -52.753906 L 47.207031 -50.089844 L 24.351562 -50.089844 L 24.351562 -77.460938 L 48.628906 -77.460938 L 48.628906 -74.792969 L 45.964844 -74.792969 L 45.964844 -92 L 48.628906 -92 L 48.628906 -89.332031 L 7.109375 -89.332031 L 7.109375 -92 L 9.777344 -92 L 9.777344 0 L 7.109375 0 L 7.109375 -2.667969 L 27.015625 -2.667969 L 27.015625 0 L 24.351562 0 Z M 24.351562 -38.785156 "/></g></g></g><g fill="#ffffff" fill-opacity="1"><g transform="translate(230.551203, 122.708046)"><g><path d="M 27.015625 -19.160156 L 51.722656 -19.160156 L 51.722656 2.667969 L 4.445312 2.667969 L 4.445312 -94.667969 L 51.722656 -94.667969 L 51.722656 -73.125 L 27.015625 -73.125 L 27.015625 -75.789062 L 29.683594 -75.789062 L 29.683594 -54.175781 L 27.015625 -54.175781 L 27.015625 -56.84375 L 50.300781 -56.84375 L 50.300781 -35.867188 L 27.015625 -35.867188 L 27.015625 -38.535156 L 29.683594 -38.535156 L 29.683594 -16.496094 L 27.015625 -16.496094 Z M 24.351562 -13.828125 L 24.351562 -41.199219 L 47.636719 -41.199219 L 47.636719 -38.535156 L 44.96875 -38.535156 L 44.96875 -54.175781 L 47.636719 -54.175781 L 47.636719 -51.511719 L 24.351562 -51.511719 L 24.351562 -78.457031 L 49.058594 -78.457031 L 49.058594 -75.789062 L 46.390625 -75.789062 L 46.390625 -92 L 49.058594 -92 L 49.058594 -89.332031 L 7.109375 -89.332031 L 7.109375 -92 L 9.777344 -92 L 9.777344 0 L 7.109375 0 L 7.109375 -2.667969 L 49.058594 -2.667969 L 49.058594 0 L 46.390625 0 L 46.390625 -16.496094 L 49.058594 -16.496094 L 49.058594 -13.828125 Z M 24.351562 -13.828125 "/></g></g></g></g></g><path fill="#ffffff" d="M 151.964844 102.597656 C 132.277344 103.648438 116.550781 119.921875 116.136719 139.632812 C 115.863281 152.488281 122.023438 163.945312 131.613281 171.007812 C 132.210938 171.445312 133.066406 171.160156 133.28125 170.449219 L 134.828125 165.273438 C 134.949219 164.859375 134.808594 164.417969 134.476562 164.140625 C 127.28125 158.179688 122.828125 149.007812 123.347656 138.847656 C 124.152344 123.175781 136.867188 110.503906 152.542969 109.757812 C 170.167969 108.917969 184.773438 123.015625 184.773438 140.453125 C 184.773438 149.746094 180.625 158.085938 174.085938 163.730469 C 173.757812 164.011719 173.625 164.460938 173.757812 164.875 L 175.433594 170.003906 C 175.664062 170.707031 176.523438 170.96875 177.109375 170.519531 C 186.132812 163.582031 191.953125 152.683594 191.953125 140.453125 C 191.953125 118.863281 173.808594 101.425781 151.964844 102.597656 " fill-opacity="1" fill-rule="nonzero"/><path fill="#ffffff" d="M 152.175781 116.496094 C 140.542969 117.375 131.109375 126.699219 130.101562 138.320312 C 129.511719 145.125 131.777344 151.410156 135.832031 156.113281 C 136.386719 156.757812 137.433594 156.542969 137.675781 155.726562 L 139.5 149.621094 C 139.585938 149.339844 139.542969 149.035156 139.398438 148.78125 C 137.9375 146.226562 137.128906 143.253906 137.195312 140.089844 C 137.378906 131.207031 144.621094 123.890625 153.503906 123.613281 C 163.039062 123.316406 170.890625 130.984375 170.890625 140.453125 C 170.890625 143.394531 170.128906 146.164062 168.800781 148.574219 C 168.652344 148.835938 168.621094 149.144531 168.714844 149.429688 L 170.675781 155.441406 C 170.941406 156.25 171.988281 156.4375 172.53125 155.78125 C 175.988281 151.617188 178.070312 146.273438 178.070312 140.453125 C 178.070312 126.589844 166.265625 115.425781 152.175781 116.496094 " fill-opacity="1" fill-rule="nonzero"/><g clip-path="url(#6cdcf04f0b)"><path fill="#f8b701" d="M 159.648438 206.351562 L 173.203125 198.894531 L 178.605469 216.78125 Z M 138.898438 194.933594 L 154.027344 186.886719 L 169.15625 194.933594 L 154.027344 203.257812 Z M 129.449219 216.78125 L 134.851562 198.894531 L 148.40625 206.351562 Z M 140.628906 179.757812 L 148.257812 183.816406 L 137.710938 189.429688 Z M 144.738281 166.457031 L 148.9375 169.097656 L 142.703125 173.019531 Z M 165.355469 173.019531 L 159.117188 169.097656 L 163.320312 166.457031 Z M 161.304688 176.875 L 154.027344 180.746094 L 146.75 176.875 L 154.027344 172.300781 Z M 154.039062 150.457031 C 155.484375 150.457031 156.855469 150.144531 158.097656 149.59375 L 161.660156 161.097656 L 154.027344 165.898438 L 146.394531 161.097656 L 149.964844 149.585938 C 151.210938 150.140625 152.585938 150.457031 154.039062 150.457031 Z M 170.347656 189.429688 L 159.796875 183.816406 L 167.425781 179.757812 Z M 185.695312 221.507812 L 177.515625 194.417969 C 177.476562 194.203125 177.414062 193.992188 177.324219 193.792969 L 172.035156 176.269531 L 162.558594 145.679688 C 163.597656 143.988281 164.160156 141.96875 164.023438 139.808594 C 163.703125 134.78125 159.5625 130.703125 154.53125 130.460938 C 148.785156 130.183594 144.035156 134.765625 144.035156 140.453125 C 144.035156 142.363281 144.578125 144.140625 145.507812 145.65625 L 136.015625 176.289062 L 130.730469 193.792969 C 130.644531 193.992188 130.582031 194.203125 130.542969 194.417969 L 122.371094 221.484375 C 122.117188 222.320312 122.222656 223.253906 122.746094 223.957031 C 123.292969 224.6875 124.109375 225.066406 124.9375 225.066406 C 125.382812 225.066406 125.832031 224.953125 126.242188 224.730469 L 154.027344 209.445312 L 181.8125 224.730469 C 182.222656 224.953125 182.671875 225.066406 183.121094 225.066406 C 184.03125 225.066406 184.933594 224.605469 185.46875 223.71875 C 185.863281 223.058594 185.917969 222.246094 185.695312 221.507812 " fill-opacity="1" fill-rule="nonzero"/></g><g clip-path="url(#acf4428596)"><g clip-path="url(#13170ddab7)"><path stroke-linecap="butt" transform="matrix(0.749485, 0, 0, 0.749485, 0.0000045, 0.000000000000021302)" fill="none" stroke-linejoin="miter" d="M 49.997878 -0.000000000000028422 L 434.798648 -0.000000000000028422 C 462.411365 -0.000000000000028422 484.796532 22.385168 484.796532 49.997884 L 484.796532 434.798654 C 484.796532 462.411371 462.411365 484.796538 434.798648 484.796538 L 49.997878 484.796538 C 22.385162 484.796538 -0.00000600412 462.411371 -0.00000600412 434.798654 L -0.00000600412 49.997884 C -0.00000600412 22.385168 22.385162 -0.000000000000028422 49.997878 -0.000000000000028422 Z M 49.997878 -0.000000000000028422 " stroke="#f8b701" stroke-width="20" stroke-opacity="1" stroke-miterlimit="4"/></g></g></svg>